<svg id="svg" version="1.1" viewBox="0 0 300 300" width="300" height="300" xmlns="http://www.w3.org/2000/svg"><svg xmlns="http://www.w3.org/2000/svg"><defs><clipPath id="clip-1"><rect x="0" y="0" transform="scale(0.14648,0.14648)" width="2048" height="2048" fill="none"/></clipPath></defs><g clip-path="url(#clip-1)" fill="none" fill-rule="nonzero" stroke="none" stroke-width="1" stroke-linecap="butt" stroke-linejoin="miter" stroke-miterlimit="10" stroke-dasharray="" stroke-dashoffset="0" font-family="none" font-weight="none" font-size="none" text-anchor="none" style="mix-blend-mode: normal"><path d="M263.86816,61.89844c3.51709,-0.24316 8.02002,-0.09492 11.56641,0.15557c0.41309,0.02915 1.79736,0.29912 2.06104,0.52383c2.77588,2.36118 5.26465,5.37437 7.87793,7.94238c2.58984,2.54443 5.30713,4.98105 7.73584,7.65366c0.28564,0.31509 0.42773,1.78608 0.43359,2.2853c0.0498,4.96113 0.08789,9.96973 0.11279,14.92793l0.12158,28.91309l-0.04248,130.79941l-0.11865,28.02686c-0.01172,2.74365 -0.05273,5.61182 -0.0293,8.34375c0.03516,4.06494 -0.26221,5.79639 -3.73535,8.23389c-9.67383,0.15674 -19.7666,0.00879 -29.47559,0.00879l-25.83252,-0.01611c-0.42773,-0.27686 -0.83496,-0.58301 -1.21729,-0.91699c-1.3374,-1.16455 -2.3833,-2.84619 -2.44189,-4.63184c-0.09668,-2.95752 -0.02197,-5.94873 -0.06006,-8.91064c-0.09521,-7.90576 -0.13623,-15.81299 -0.12305,-23.72021l-0.14502,-62.58545l0.14063,-71.5418l0.10547,-24.30923c0.03076,-3.3561 -0.00293,-6.74956 0.06738,-10.09893c0.02783,-1.28101 0.60498,-3.04951 1.49854,-3.9769c1.83252,-1.90078 3.75586,-3.79644 5.62646,-5.66895l10.59521,-10.5958l6.1084,-6.10562c3.65039,-3.646 3.74561,-4.47158 9.16992,-4.73599z" fill="#000000"/><path d="M263.96191,74.37305c3.43066,-0.44224 5.26611,-0.32944 8.58252,0.29253c0.38965,0.18618 7.19971,7.32451 8.14453,8.22539l0.27246,204.51724h-37.50586l-0.09375,-34.50732c-0.01172,-5.57666 0.18164,-12.51709 -0.02783,-18.03662c-0.10693,-1.22754 -0.12012,-3.26074 -0.17432,-4.56445c-0.20361,-4.94824 -0.2915,-9.90234 -0.26367,-14.85498l-0.0293,-27.94482c-0.0791,-30.77197 0.01758,-61.54438 0.29297,-92.31519c6.75732,-6.94995 13.92627,-13.93901 20.80225,-20.81177z" fill="#05636b"/><path d="M263.96191,74.37305c3.43066,-0.44224 5.26611,-0.32944 8.58252,0.29253c-2.83447,0.00132 -5.15918,0.06079 -7.98486,0.37192c-6.81152,6.79834 -14.13574,13.89932 -20.80078,20.80107l-0.29004,96.1043l-0.01611,28.95557l-0.03369,8.94287c-0.00732,1.43701 0.04541,3.646 -0.08496,5.02295c-0.10693,-1.22754 -0.12012,-3.26074 -0.17432,-4.56445c-0.20361,-4.94824 -0.2915,-9.90234 -0.26367,-14.85498l-0.0293,-27.94482c-0.0791,-30.77197 0.01758,-61.54438 0.29297,-92.31519c6.75732,-6.94995 13.92627,-13.93901 20.80225,-20.81177z" fill="#042028"/><path d="M183.09521,88.65776c1.33887,-1.32979 2.26318,-1.75913 4.24512,-1.78228c3.03516,-0.03545 5.51514,3.37983 7.57031,5.47793c2.92676,2.95122 5.83594,5.92002 8.72754,8.90625c4.27002,4.34546 8.86084,8.54297 13.15576,12.87451c0.72803,0.73462 1.70361,1.79209 1.70361,2.82363c0.13037,2.69912 0.09668,5.47793 0.11133,8.18101l0.08789,15.27627l0.14795,44.94624l-0.09521,71.36279l-0.12598,27c-0.03809,3.32666 -0.00146,6.65039 -0.07324,9.97852c-0.05713,2.73193 -1.49854,4.52344 -3.68262,5.99414l-35.14893,0.02051c-6.36914,0 -13.91162,0.19189 -20.18115,-0.0249c-1.4209,-1.00195 -3.52002,-3.00439 -3.56396,-4.76367c-0.37207,-14.76416 -0.28125,-30.08789 -0.36035,-44.8125l0.04102,-95.97656c0.09229,-12.08774 0.03516,-24.20522 0.19629,-36.29546c0.01318,-0.93984 0.15381,-1.72588 0.74561,-2.48071c1.09277,-1.39687 2.5708,-2.96909 3.82324,-4.22842c1.05029,-0.27803 5.84033,-5.19126 6.63721,-6.14561c1.18213,-0.89282 5.43018,-5.31826 6.60352,-6.50537c2.01709,-2.03804 4.02393,-4.08706 6.01904,-6.14707c1.0459,-1.08135 2.5166,-2.5188 3.41602,-3.67925z" fill="#000000"/><path d="M186.5918,102.20229c6.65625,5.75918 13.03271,11.83491 19.10449,18.20625l0.26807,166.99966l-17.95166,-0.00146h-19.58057l0.3208,-167.04683c5.72607,-5.54502 12.47461,-12.29575 17.83887,-18.15762z" fill="#128990"/><path d="M108.68276,113.24766c0.25562,-0.50083 0.37573,-0.71836 0.95962,-0.87349c1.71138,-0.45439 5.13237,-0.09478 6.60103,0.90249c1.454,0.9873 3.59077,3.29194 4.89829,4.59858l8.23623,8.23345l8.29043,8.29658c1.57075,1.57295 5.52158,5.03203 5.76064,7.22344c0.2937,2.69341 0.1856,6.09346 0.21021,8.85908l0.11675,24.45703l0.02505,82.58057l-0.12744,26.64111c-0.03354,3.08936 -0.04277,6.18311 -0.07134,9.27393c-0.02593,2.80664 -1.43877,4.78418 -3.73403,6.26367l-36.47256,0.01025c-5.83521,0 -13.12471,0.19922 -18.84976,-0.02197c-1.45254,-1.02832 -3.53218,-3.03076 -3.57583,-4.85303c-0.32607,-13.58789 -0.2543,-27.88037 -0.33281,-41.42139l0.02285,-74.35693c-0.00352,-10.23047 0.05596,-20.45947 0.17813,-30.68994c0.03149,-1.79443 -0.37412,-6.56851 0.64424,-7.76719c0.38555,-0.45396 3.24404,-3.68013 3.68291,-3.97485c1.62246,-1.94165 3.99844,-4.37344 5.76504,-6.23979c3.61846,-3.81841 7.2895,-7.58687 11.01182,-11.30405c1.80747,-1.79297 3.82017,-3.83496 5.74351,-5.51748c0.23452,-0.20537 0.70459,-0.27744 1.01704,-0.32007z" fill="#000000"/><path d="M85.14536,136.62905c1.62246,-1.94165 3.99844,-4.37344 5.76504,-6.23979c3.61846,-3.81841 7.2895,-7.58687 11.01182,-11.30405c1.80747,-1.79297 3.82017,-3.83496 5.74351,-5.51748c0.23452,-0.20537 0.70459,-0.27744 1.01704,-0.32007c-1.17217,1.84541 -22.37183,23.03159 -23.21382,23.33467c-0.10693,0.03838 -0.21226,0.03853 -0.32358,0.04673z" fill="#042028"/><path d="M111.00703,126.83394c0.53599,-0.04922 1.8438,-0.04937 2.25,0.28916c1.88657,1.57192 3.66973,3.53247 5.40059,5.26978l12.58945,12.57788l0.31582,143.02632l-17.81777,-0.00293l-20.87358,0.00586l0.27876,-143.00391c5.73091,-5.42856 12.44575,-12.39434 17.85674,-18.16216z" fill="#05636b"/><path d="M111.59634,127.40229c6.65317,5.7501 13.02466,11.81836 19.09189,18.18369l0.28242,141.82661l-18.10444,-0.00293l-19.4417,-0.00293l0.32358,-141.82046c1.48008,-1.60034 3.54038,-3.50347 5.11567,-5.08784c4.30796,-4.30298 8.55249,-8.6688 12.73257,-13.09614z" fill="#4db2b8"/><path d="M11.20822,162.05713c5.08655,-0.30762 7.85774,3.69434 11.14002,6.98877l14.23491,14.53418l15.07061,-13.88818c2.22539,-2.06104 4.68472,-4.40771 6.97881,-6.37207c0.76216,-0.65332 3.12612,-1.21729 4.18857,-1.20117c1.68062,-0.02344 2.89468,0.79834 4.06509,1.91455c2.12065,2.02441 1.71709,4.46338 1.75122,7.18652l0.05508,8.27051l0.13228,23.40088l-0.13389,81.03223c-0.05391,3.40283 0.09419,7.36816 -0.22397,10.72705c-0.20039,2.1167 -1.91294,3.86133 -3.61787,5.05371c-7.18403,0.1084 -14.64478,0.00732 -21.84756,0.00879l-33.46034,-0.01611c-4.46177,-2.93701 -3.63697,-5.99414 -3.74515,-10.63037c-0.02124,-0.90967 -0.01989,-1.84424 -0.02814,-2.75537l-0.11767,-21.1582c-0.13664,-22.67432 -0.1351,-45.34863 0.00458,-68.02295l0.10794,-20.99268c0.02917,-2.86963 0.05766,-5.75537 0.10708,-8.625c0.01217,-0.70752 0.42064,-1.33887 0.79737,-1.95117c1.29825,-2.10791 2.15575,-2.9209 4.54103,-3.50391z" fill="#000000"/><path d="M17.85776,287.99854l0.00615,-76.34326l-0.00073,-20.1958c-0.00029,-1.37842 -0.10503,-7.2627 0.08145,-8.29395c0.63516,-0.20215 1.48799,0.05713 1.9626,0.50537c3.34453,3.15381 6.53203,6.49658 9.73667,9.79541c0.94717,0.97412 2.19009,2.16211 2.97847,3.25195c2.23696,2.13721 5.82788,3.375 8.28589,0.87744c0.94819,-1.25977 4.98135,-5.36279 6.32505,-6.67529c1.85186,-1.81055 5.41274,-5.71143 7.28584,-7.2627c0.37676,-0.30615 0.83276,-0.49951 1.31484,-0.55811c0.39595,-0.04395 0.33823,-0.04248 0.66504,0.09668c0.10869,0.85254 0.05698,2.82568 0.05742,3.75879l0.00176,7.13525l-0.00176,24.76465l-0.00029,45.479c0,7.33887 0.19014,15.57568 -0.01187,22.85303c-0.23892,0.29004 -0.08892,0.18311 -0.45571,0.31055c-1.40479,-0.12598 -3.04468,0.00439 -4.47231,0.00586c-3.10957,0.00146 -6.3958,0.2168 -9.4938,0.16553c-1.92891,0.42773 -6.21431,0.3501 -8.3543,0.36768c-5.30347,0.04834 -10.60723,0.03662 -15.9104,-0.03809z" fill="#73d5db"/><path d="M17.85776,287.99854l0.00615,-76.34326l-0.00073,-20.1958c-0.00029,-1.37842 -0.10503,-7.2627 0.08145,-8.29395c0.63516,-0.20215 1.48799,0.05713 1.9626,0.50537c3.34453,3.15381 6.53203,6.49658 9.73667,9.79541c0.94717,0.97412 2.19009,2.16211 2.97847,3.25195c-1.15767,-0.75146 -3.31597,-2.75244 -4.36333,-3.70898c-3.29663,-2.99268 -6.46992,-6.11865 -9.51196,-9.37061c-0.31362,34.58936 -0.41836,69.18018 -0.3145,103.771l14.98682,-0.00879c2.18306,0.00146 6.85811,-0.12598 8.70308,0.26807c-1.92891,0.42773 -6.21431,0.3501 -8.3543,0.36768c-5.30347,0.04834 -10.60723,0.03662 -15.9104,-0.03809z" fill="#05636b"/><path d="M40.90825,197.5957c0.94819,-1.25977 4.98135,-5.36279 6.32505,-6.67529c1.85186,-1.81055 5.41274,-5.71143 7.28584,-7.2627c0.37676,-0.30615 0.83276,-0.49951 1.31484,-0.55811c0.39595,-0.04395 0.33823,-0.04248 0.66504,0.09668c0.10869,0.85254 0.05698,2.82568 0.05742,3.75879l0.00176,7.13525l-0.00176,24.76465l-0.00029,45.479c0,7.33887 0.19014,15.57568 -0.01187,22.85303c-0.23892,0.29004 -0.08892,0.18311 -0.45571,0.31055c-0.24595,-0.96094 -0.121,-7.76807 -0.11543,-9.09668l0.01392,-18.95947l-0.33032,-75.68994c-3.35493,3.52002 -6.83188,6.92139 -10.42441,10.19824c-1.02568,0.93311 -3.18589,2.92969 -4.32407,3.646z" fill="#05636b"/><path d="M167.39355,103.69043c0.70166,-0.98408 2.46533,-2.63306 3.35742,-3.54448c2.00244,-2.05254 4.01953,-4.09072 6.05127,-6.11426c1.65967,-1.64927 3.5083,-3.53027 5.2793,-5.07275c0.2417,-0.20947 0.69434,-0.26631 1.01367,-0.30117c-0.89941,1.16045 -2.37012,2.5979 -3.41602,3.67925c-1.99512,2.06001 -4.00195,4.10903 -6.01904,6.14707c-1.17334,1.18711 -5.42139,5.61255 -6.60352,6.50537l-0.09082,-0.15234c0.26953,-0.45659 0.41895,-0.61479 0.42773,-1.14668z" fill-opacity="0.89412" fill="#042028"/><path d="M167.39355,103.69043c-0.00879,0.53188 -0.1582,0.69009 -0.42773,1.14668l0.09082,0.15234c-0.79687,0.95435 -5.58691,5.86758 -6.63721,6.14561c1.66992,-2.01123 5.10205,-5.61401 6.97412,-7.44463z" fill-opacity="0.9098" fill="#042028"/><path d="M246.36182,0h44.03027c3.30615,2.29582 3.2417,4.57853 3.34277,8.15287c0.31787,11.28312 0.30469,22.54293 -0.01758,33.82531c-0.07764,2.7041 -0.0498,4.23794 -2.11377,6.30176c-2.03467,2.10132 -5.33496,2.11655 -7.8457,0.87378c-1.2876,-0.92769 -2.55469,-2.22612 -3.72656,-3.28462c-4.0708,-3.67646 -7.85303,-7.552 -11.66748,-11.47368c-3.4043,3.29033 -6.97119,7.08516 -10.37402,10.49238l-21.30029,21.1626l-16.74902,16.35703c-1.52637,1.50293 -3.09229,2.90068 -4.58057,4.43936c-5.95752,1.74858 -7.78857,-0.7166 -11.70264,-4.6311l-5.44922,-5.45479c-3.62695,-3.63003 -7.34619,-7.12559 -11.00391,-10.7105c-10.34326,10.10947 -20.62061,20.28486 -30.8335,30.52544l-9.00439,9.02769c-2.92354,2.92998 -5.72256,6.68013 -10.20322,6.63311c-2.76445,-0.02915 -3.60396,-0.49951 -5.53521,-2.47192c-6.35039,-6.48574 -12.91772,-12.74443 -19.3853,-19.10757c-6.09214,5.7501 -12.21826,12.07573 -18.16172,17.99502l-32.26626,32.15786l-13.45474,13.45562c-2.30435,2.3042 -4.56387,4.64795 -6.9769,6.83496c-2.62397,2.37744 -6.48091,1.95996 -8.93818,-0.43359c-1.93213,-1.88086 -3.8313,-3.8291 -5.74175,-5.73926l-11.75361,-11.77104c-1.56501,-1.57632 -3.14127,-3.14165 -4.72857,-4.69556c-0.88633,-0.87319 -2.66745,-2.47104 -3.25544,-3.44751c-1.35965,-2.25806 -1.78699,-6.17227 0.25377,-8.13047c1.92485,-2.19639 6.43497,-3.24932 8.91984,-1.37417c2.33071,1.75898 5.0521,4.72471 7.19531,6.86895l13.81787,13.83926c1.01602,-0.67632 4.50396,-4.40801 5.57622,-5.4835l13.40933,-13.41753l30.8748,-30.58872l15.58271,-15.31025c2.25513,-2.20225 4.35718,-4.35879 6.69126,-6.50801c0.85122,-0.17886 1.71987,-0.26265 2.5897,-0.24976c4.85229,0.02695 6.74927,3.10342 9.92476,6.28096l15.05874,15.31714l25.32935,-25.03506l12.38818,-12.40459c2.23828,-2.24458 4.47949,-4.51685 6.74561,-6.73008c1.62158,-1.58496 3.55811,-2.76138 5.89893,-2.68945c1.45605,0.01011 3.01318,0.4582 4.21729,1.30869c2.18408,1.54438 4.1748,3.7355 6.06445,5.62646c4.96582,5.01123 9.84375,10.10771 14.63379,15.28726c15.56543,-15.47153 31.03418,-31.04136 46.40332,-46.70859c-2.34668,-2.5481 -4.7373,-5.05444 -7.17187,-7.51802c-4.99219,-4.99207 -12.69141,-10.45087 -5.00684,-17.39414z" fill="#000000"/><path d="M247.70361,2.74431l41.61914,-0.00623c0.54932,0.59533 1.37842,1.7336 1.4751,2.52735c0.44238,3.30538 0.10986,6.79417 0.27393,10.08832c0.48193,9.61626 -0.13037,19.18784 -0.14502,28.79839c-1.02539,0.98467 -2.06982,2.04653 -3.08203,3.05039c-0.48633,0.00439 -0.98877,0.00088 -1.46924,-0.06328c-1.73291,-0.23101 -7.5498,-6.50054 -9.11719,-7.95278c-1.42236,-1.31763 -2.94434,-2.48804 -4.28467,-3.89751c-0.63867,-0.67104 -1.09131,-1.47173 -1.69189,-2.16694c-0.95801,-1.10742 -2.46533,-1.40303 -3.87451,-1.47832c-0.48926,-0.02622 -1.18066,0.23979 -1.57617,0.52397c-1.54687,1.11343 -2.96484,2.79302 -4.32275,4.1499l-8.20898,8.21323l-27.11426,27.18867l-8.08887,8.09839c-1.48242,1.48564 -3.31641,3.42085 -4.85449,4.77114c-0.88916,0.03604 -2.30859,0.10605 -3.05566,-0.38262c-1.7124,-1.12017 -3.55664,-3.1585 -5.01562,-4.61895l-7.44727,-7.46045c-1.30225,-1.28511 -2.68945,-2.41011 -4.16895,-3.75264c-1.59082,-1.44243 -4.03857,-4.49897 -6.21094,-4.95527c-0.47461,-0.09976 -3.22852,1.04238 -3.62695,1.37695c-1.21582,1.01704 -2.43896,2.31108 -3.58154,3.45571l-6.77197,6.79233l-22.021,22.00459l-6.44824,6.46143c-8.8998,8.9855 -7.88188,7.30679 -16.62627,-1.24409c-4.42324,-4.32539 -9.55576,-8.97935 -14.03379,-13.36362c-2.61943,-2.56479 -5.99048,1.5832 -7.89639,3.41865c-1.91792,1.86533 -3.8562,3.70972 -5.8144,5.53271c-0.01274,0.0873 -0.08628,0.59692 -0.09829,0.60864c-1.21465,1.20117 -4.21875,4.91528 -5.56904,5.59526c-0.34746,-0.19424 -0.23921,-0.11982 -0.51914,-0.40781c-5.72168,5.35313 -11.26421,11.05869 -16.81465,16.60898l-26.1605,26.16768l-9.24009,9.25415c-1.06172,1.06348 -4.26665,4.98047 -5.78467,4.11035c-2.81001,-1.61279 -5.62983,-4.88525 -7.95923,-7.21436l-10.80469,-10.81465l-4.976,-4.9793c-2.03748,-2.02368 -6.51397,-5.69546 -2.29531,-8.72241c1.70004,-1.21992 3.48479,-0.93296 4.98059,0.4645c1.81479,1.69541 3.68042,3.61538 5.47456,5.41641l10.40039,10.44448c1.22036,1.22344 2.81104,2.94243 4.19033,3.97808c0.17842,0.13477 1.57192,0.44678 1.88437,0.51709c0.72817,-0.19189 2.12563,-0.52588 2.61563,-1.04297c1.44492,-1.523 2.80723,-3.04497 4.30049,-4.53223l13.73438,-13.72134c13.14463,-13.27163 26.44497,-26.38843 39.8981,-39.34731c4.52036,-4.35117 8.4542,-8.62646 13.17671,-12.86045c0.36987,-0.00352 0.73989,0.0082 1.10889,0.03516c1.7855,0.12041 2.92295,0.66021 4.2041,1.90898c5.22729,5.09736 10.39292,10.28027 15.42935,15.56719c1.5,1.58438 2.47471,3.88579 4.91338,4.01558c2.41509,0.12847 4.14756,-2.38975 5.83345,-4.07812l7.99512,-8.01592l18.63867,-18.33765l8.59424,-8.60186c2.40967,-2.42827 4.87061,-5.23521 7.74023,-7.12222c1.36816,-0.91641 3.29004,-0.59443 4.55127,0.44985c4.78125,3.95845 9.04541,8.76826 13.46631,13.13716c1.80176,1.78066 3.15967,3.94658 5.10205,5.64712c1.00342,0.87817 2.02734,2.204 3.49072,2.32661c0.58008,0.029 1.85303,-0.39463 2.29395,-0.80215c2.0127,-1.86064 3.9375,-3.84712 5.87695,-5.78936l11.23096,-11.23813l17.04053,-17.32866l7.80322,-7.79619c1.68604,-1.68384 5.64258,-4.6894 4.71826,-7.22856c-0.59912,-1.64385 -2.19141,-2.82451 -3.27686,-4.12705c-2.63672,-3.16348 -5.58105,-5.97987 -8.50049,-8.87596c-2.98242,-3.06385 -4.80469,-4.71699 -1.50732,-8.37807z" fill="#4db2b8"/><path d="M94.33623,103.64985c2.01533,-1.94062 4.13921,-3.88052 6.18647,-5.79609c-0.01274,0.0873 -0.08628,0.59692 -0.09829,0.60864c-1.21465,1.20117 -4.21875,4.91528 -5.56904,5.59526c-0.34746,-0.19424 -0.23921,-0.11982 -0.51914,-0.40781z" fill="#042028"/><path d="M264.71924,11.72662l16.50439,0.01402c0.22266,5.54057 0.15967,11.08896 -0.1875,16.62313c-0.18164,0.09185 -0.38086,0.14092 -0.58447,0.14341c-0.41455,0.00117 -0.45557,-0.15483 -0.70166,-0.4415c-4.46777,-5.18101 -9.29297,-9.87847 -14.42871,-14.39061c-0.70752,-0.6218 -0.59619,-1.07032 -0.60205,-1.94845z" fill="#73d5db"/></g></svg></svg>