<?xml version="1.0" encoding="UTF-8"?>
<!DOCTYPE svg PUBLIC "-//W3C//DTD SVG 1.1//EN" "http://www.w3.org/Graphics/SVG/1.1/DTD/svg11.dtd">
<svg xmlns="http://www.w3.org/2000/svg" version="1.1" width="512px" height="512px" style="shape-rendering:geometricPrecision; text-rendering:geometricPrecision; image-rendering:optimizeQuality; fill-rule:evenodd; clip-rule:evenodd" xmlns:xlink="http://www.w3.org/1999/xlink">
<g><path style="opacity:1" fill="#020303" d="M 421.5,-0.5 C 445.833,-0.5 470.167,-0.5 494.5,-0.5C 498.001,1.50567 500.167,4.50567 501,8.5C 501.667,31.1667 501.667,53.8333 501,76.5C 498.058,84.3774 492.558,86.8774 484.5,84C 475.363,75.8641 466.53,67.3641 458,58.5C 428.139,88.6948 397.972,118.528 367.5,148C 362.493,149.918 357.826,149.251 353.5,146C 342.319,134.652 330.986,123.486 319.5,112.5C 294.014,137.486 268.68,162.653 243.5,188C 238.569,191.733 233.236,192.4 227.5,190C 215.653,177.986 203.653,166.152 191.5,154.5C 151.014,194.486 110.68,234.653 70.5,275C 65.8333,278.333 61.1667,278.333 56.5,275C 41.6667,260.167 26.8333,245.333 12,230.5C 7.59848,220.751 10.5985,214.751 21,212.5C 23.7318,212.615 26.2318,213.448 28.5,215C 39.8333,226.333 51.1667,237.667 62.5,249C 63.1667,249.667 63.8333,249.667 64.5,249C 104.861,208.305 145.528,167.972 186.5,128C 191.184,126.898 195.517,127.564 199.5,130C 211.035,141.368 222.369,152.868 233.5,164.5C 233.897,165.525 234.563,165.692 235.5,165C 261.368,139.299 287.035,113.465 312.5,87.5C 314.166,85.1716 316.499,84.1716 319.5,84.5C 322.937,84.5521 325.937,85.7187 328.5,88C 340.03,99.1958 351.197,110.696 362,122.5C 388.68,95.9863 415.18,69.3196 441.5,42.5C 434.181,34.681 426.681,27.0143 419,19.5C 413.032,12.0253 413.865,5.35864 421.5,-0.5 Z"/></g>
<g><path style="opacity:1" fill="#19cad6" d="M 452.5,20.5 C 461.5,20.5 470.5,20.5 479.5,20.5C 479.666,29.8393 479.5,39.1726 479,48.5C 471,39.1667 462.333,30.5 453,22.5C 452.536,21.9056 452.369,21.2389 452.5,20.5 Z"/></g>
<g><path style="opacity:1" fill="#010306" d="M 475.5,108.5 C 482.833,116.5 490.5,124.167 498.5,131.5C 500.067,132.681 500.901,134.347 501,136.5C 501.667,258.5 501.667,380.5 501,502.5C 500.167,506.494 498.001,509.494 494.5,511.5C 463.167,511.5 431.833,511.5 400.5,511.5C 396.999,509.494 394.833,506.494 394,502.5C 393.333,387.5 393.333,272.5 394,157.5C 394.471,155.754 395.138,154.087 396,152.5C 410.833,137.667 425.667,122.833 440.5,108C 442.087,107.138 443.754,106.471 445.5,106C 453.833,105.333 462.167,105.333 470.5,106C 472.653,106.099 474.319,106.933 475.5,108.5 Z"/></g>
<g><path style="opacity:0.008" fill="#092e53" d="M 475.5,108.5 C 476.239,108.369 476.906,108.536 477.5,109C 485.094,116.089 492.094,123.589 498.5,131.5C 490.5,124.167 482.833,116.5 475.5,108.5 Z"/></g>
<g><path style="opacity:0.831" fill="#182023" d="M 312.5,87.5 C 287.035,113.465 261.368,139.299 235.5,165C 234.563,165.692 233.897,165.525 233.5,164.5C 259.299,139.202 284.965,113.702 310.5,88C 311.094,87.5357 311.761,87.369 312.5,87.5 Z"/></g>
<g><path style="opacity:1" fill="#00636b" d="M 465.5,127.5 C 469.797,132.298 474.297,136.965 479,141.5C 479.5,257.833 479.667,374.166 479.5,490.5C 458.167,490.5 436.833,490.5 415.5,490.5C 415.333,381.499 415.5,272.499 416,163.5C 427.833,151.667 439.667,139.833 451.5,128C 456.155,127.501 460.821,127.334 465.5,127.5 Z"/></g>
<g><path style="opacity:1" fill="#020406" d="M 326.5,151.5 C 340.833,166.5 355.5,181.167 370.5,195.5C 372.067,196.681 372.901,198.347 373,200.5C 373.667,301.167 373.667,401.833 373,502.5C 372.167,506.494 370.001,509.494 366.5,511.5C 335.167,511.5 303.833,511.5 272.5,511.5C 268.999,509.494 266.833,506.494 266,502.5C 265.333,401.833 265.333,301.167 266,200.5C 266.099,198.347 266.933,196.681 268.5,195.5C 283.5,181.167 298.167,166.5 312.5,151.5C 314.166,149.172 316.499,148.172 319.5,148.5C 322.501,148.172 324.834,149.172 326.5,151.5 Z"/></g>
<g><path style="opacity:0.008" fill="#145990" d="M 326.5,151.5 C 341.414,164.912 355.914,178.912 370,193.5C 370.464,194.094 370.631,194.761 370.5,195.5C 355.5,181.167 340.833,166.5 326.5,151.5 Z"/></g>
<g><path style="opacity:1" fill="#002023" d="M 465.5,127.5 C 460.821,127.334 456.155,127.501 451.5,128C 439.667,139.833 427.833,151.667 416,163.5C 415.5,272.499 415.333,381.499 415.5,490.5C 414.334,381.334 414.167,272.001 415,162.5C 426.833,150.667 438.667,138.833 450.5,127C 455.684,126.184 460.684,126.35 465.5,127.5 Z"/></g>
<g><path style="opacity:1" fill="#138991" d="M 318.5,174.5 C 329.747,184.243 340.58,194.576 351,205.5C 351.5,300.499 351.667,395.499 351.5,490.5C 330.167,490.5 308.833,490.5 287.5,490.5C 287.333,395.499 287.5,300.499 288,205.5C 298.369,195.298 308.535,184.965 318.5,174.5 Z"/></g>
<g><path style="opacity:0.827" fill="#0d1f30" d="M 312.5,151.5 C 298.167,166.5 283.5,181.167 268.5,195.5C 281.912,180.586 295.912,166.086 310.5,152C 311.094,151.536 311.761,151.369 312.5,151.5 Z"/></g>
<g><path style="opacity:1" fill="#020406" d="M 238.5,511.5 C 207.167,511.5 175.833,511.5 144.5,511.5C 140.999,509.494 138.833,506.494 138,502.5C 137.333,415.833 137.333,329.167 138,242.5C 138.2,240.68 139.034,239.347 140.5,238.5C 155.833,223.833 170.833,208.833 185.5,193.5C 185.611,192.883 185.944,192.383 186.5,192C 191.184,190.898 195.517,191.564 199.5,194C 213.667,208.167 227.833,222.333 242,236.5C 243.439,238.275 244.439,240.275 245,242.5C 245.667,329.167 245.667,415.833 245,502.5C 244.167,506.494 242.001,509.494 238.5,511.5 Z"/></g>
<g><path style="opacity:0.973" fill="#102638" d="M 185.5,193.5 C 170.833,208.833 155.833,223.833 140.5,238.5C 154.245,223.252 168.578,208.419 183.5,194C 184.094,193.536 184.761,193.369 185.5,193.5 Z"/></g>
<g><path style="opacity:1" fill="#2e6569" d="M 189.5,216.5 C 190.873,216.343 192.207,216.51 193.5,217C 203.667,227.167 213.833,237.333 224,247.5C 224.5,328.833 224.667,410.166 224.5,491.5C 202.5,491.5 180.5,491.5 158.5,491.5C 158.333,410.166 158.5,328.833 159,247.5C 169.369,237.298 179.535,226.965 189.5,216.5 Z"/></g>
<g><path style="opacity:1" fill="#4db2b9" d="M 190.5,217.5 C 201.747,227.243 212.58,237.576 223,248.5C 223.5,329.166 223.667,409.833 223.5,490.5C 202.167,490.5 180.833,490.5 159.5,490.5C 159.333,409.833 159.5,329.166 160,248.5C 170.369,238.298 180.535,227.965 190.5,217.5 Z"/></g>
<g><path style="opacity:1" fill="#030406" d="M 62.5,313.5 C 62.5173,315.028 63.184,315.528 64.5,315C 76.702,302.965 88.702,290.798 100.5,278.5C 107.937,274.814 113.437,276.814 117,284.5C 117.667,357.167 117.667,429.833 117,502.5C 116.167,506.494 114.001,509.494 110.5,511.5C 79.1667,511.5 47.8333,511.5 16.5,511.5C 12.9994,509.494 10.8328,506.494 10,502.5C 9.33333,430.167 9.33333,357.833 10,285.5C 13.6295,276.445 19.7962,274.278 28.5,279C 40.0354,290.368 51.3687,301.868 62.5,313.5 Z"/></g>
<g><path style="opacity:0.969" fill="#1a2f40" d="M 100.5,278.5 C 88.702,290.798 76.702,302.965 64.5,315C 63.184,315.528 62.5173,315.028 62.5,313.5C 75.1667,301.833 87.8333,290.167 100.5,278.5 Z"/></g>
<g><path style="opacity:1" fill="#3b696c" d="M 57.5,337.5 C 48.588,330.093 40.088,322.093 32,313.5C 31.5,372.499 31.3333,431.499 31.5,490.5C 52.8333,490.5 74.1667,490.5 95.5,490.5C 95.8333,490.5 96.1667,490.5 96.5,490.5C 74.673,491.497 52.673,491.831 30.5,491.5C 30.5,431.833 30.5,372.167 30.5,312.5C 31.552,312.351 32.552,312.517 33.5,313C 41.7024,321.035 49.7024,329.202 57.5,337.5 Z"/></g>
<g><path style="opacity:1" fill="#72d6dd" d="M 57.5,337.5 C 60.8706,339.809 64.5373,340.142 68.5,338.5C 77.7456,330.759 86.5789,322.426 95,313.5C 95.5,372.499 95.6667,431.499 95.5,490.5C 74.1667,490.5 52.8333,490.5 31.5,490.5C 31.3333,431.499 31.5,372.499 32,313.5C 40.088,322.093 48.588,330.093 57.5,337.5 Z"/></g>
<g><path style="opacity:1" fill="#407275" d="M 96.5,490.5 C 96.1667,490.5 95.8333,490.5 95.5,490.5C 95.6667,431.499 95.5,372.499 95,313.5C 86.5789,322.426 77.7456,330.759 68.5,338.5C 76.631,329.868 84.9643,321.368 93.5,313C 94.448,312.517 95.448,312.351 96.5,312.5C 96.5,371.833 96.5,431.167 96.5,490.5 Z"/></g>
</svg>
